STARTFONT 2.1
FONT -FontForge-Dasher-Medium-R-Normal--12-120-75-75-C-100-ISO8859-1
SIZE 12 75 75
FONTBOUNDINGBOX 8 11 0 0
COMMENT "Generated by fontforge, http://fontforge.sourceforge.net"
STARTPROPERTIES 31
FOUNDRY "FontForge"
FAMILY_NAME "Dasher"
WEIGHT_NAME "Medium"
SLANT "R"
SETWIDTH_NAME "Normal"
ADD_STYLE_NAME ""
PIXEL_SIZE 12
POINT_SIZE 120
RESOLUTION_X 75
RESOLUTION_Y 75
SPACING "C"
AVERAGE_WIDTH 100
CHARSET_REGISTRY "ISO8859"
CHARSET_ENCODING "1"
FONTNAME_REGISTRY ""
CHARSET_COLLECTIONS "ISOLatin1Encoding"
FONT_NAME "D410"
FACE_NAME "D410"
FONT_VERSION "001.000"
FONT_ASCENT 10
FONT_DESCENT 2
UNDERLINE_POSITION -1
UNDERLINE_THICKNESS 1
X_HEIGHT 7
CAP_HEIGHT 10
RAW_ASCENT 800
RAW_DESCENT 200
NORM_SPACE 10
FIGURE_WIDTH 10
AVG_LOWERCASE_WIDTH 100
AVG_UPPERCASE_WIDTH 100
ENDPROPERTIES
CHARS 96
STARTCHAR space
ENCODING 32
SWIDTH 833 0
DWIDTH 10 0
BBX 1 1 0 0
BITMAP
00
ENDCHAR
STARTCHAR exclam
ENCODING 33
SWIDTH 833 0
DWIDTH 10 0
BBX 1 9 4 2
BITMAP
80
80
80
80
80
80
00
00
80
ENDCHAR
STARTCHAR quotedbl
ENCODING 34
SWIDTH 833 0
DWIDTH 10 0
BBX 4 3 2 8
BITMAP
90
90
90
ENDCHAR
STARTCHAR numbersign
ENCODING 35
SWIDTH 833 0
DWIDTH 10 0
BBX 7 9 1 2
BITMAP
28
28
28
FE
28
FE
28
28
28
ENDCHAR
STARTCHAR dollar
ENCODING 36
SWIDTH 833 0
DWIDTH 10 0
BBX 7 9 1 2
BITMAP
10
7E
90
90
7C
12
12
FC
10
ENDCHAR
STARTCHAR percent
ENCODING 37
SWIDTH 833 0
DWIDTH 10 0
BBX 7 9 1 2
BITMAP
40
A2
44
08
10
20
44
8A
04
ENDCHAR
STARTCHAR ampersand
ENCODING 38
SWIDTH 833 0
DWIDTH 10 0
BBX 7 9 1 2
BITMAP
70
88
88
50
20
52
8C
8C
72
ENDCHAR
STARTCHAR quotesingle
ENCODING 39
SWIDTH 833 0
DWIDTH 10 0
BBX 2 3 4 8
BITMAP
C0
40
80
ENDCHAR
STARTCHAR parenleft
ENCODING 40
SWIDTH 833 0
DWIDTH 10 0
BBX 3 9 3 2
BITMAP
20
40
80
80
80
80
80
40
20
ENDCHAR
STARTCHAR parenright
ENCODING 41
SWIDTH 833 0
DWIDTH 10 0
BBX 3 9 3 2
BITMAP
80
40
20
20
20
20
20
40
80
ENDCHAR
STARTCHAR asterisk
ENCODING 42
SWIDTH 833 0
DWIDTH 10 0
BBX 7 7 1 3
BITMAP
10
92
54
38
54
92
10
ENDCHAR
STARTCHAR plus
ENCODING 43
SWIDTH 833 0
DWIDTH 10 0
BBX 7 7 1 3
BITMAP
10
10
10
FE
10
10
10
ENDCHAR
STARTCHAR comma
ENCODING 44
SWIDTH 833 0
DWIDTH 10 0
BBX 2 3 4 0
BITMAP
C0
40
80
ENDCHAR
STARTCHAR hyphen
ENCODING 45
SWIDTH 833 0
DWIDTH 10 0
BBX 7 1 1 6
BITMAP
FE
ENDCHAR
STARTCHAR period
ENCODING 46
SWIDTH 833 0
DWIDTH 10 0
BBX 2 1 4 2
BITMAP
C0
ENDCHAR
STARTCHAR slash
ENCODING 47
SWIDTH 833 0
DWIDTH 10 0
BBX 7 7 1 3
BITMAP
02
04
08
10
20
40
80
ENDCHAR
STARTCHAR zero
ENCODING 48
SWIDTH 833 0
DWIDTH 10 0
BBX 7 9 1 2
BITMAP
38
44
82
82
82
82
82
44
38
ENDCHAR
STARTCHAR one
ENCODING 49
SWIDTH 833 0
DWIDTH 10 0
BBX 5 9 2 2
BITMAP
20
60
A0
20
20
20
20
20
F8
ENDCHAR
STARTCHAR two
ENCODING 50
SWIDTH 833 0
DWIDTH 10 0
BBX 7 9 1 2
BITMAP
7C
82
02
04
18
60
80
80
FE
ENDCHAR
STARTCHAR three
ENCODING 51
SWIDTH 833 0
DWIDTH 10 0
BBX 7 9 1 2
BITMAP
7C
82
02
02
3C
02
02
82
7C
ENDCHAR
STARTCHAR four
ENCODING 52
SWIDTH 833 0
DWIDTH 10 0
BBX 7 9 1 2
BITMAP
04
0C
14
24
44
84
FE
04
04
ENDCHAR
STARTCHAR five
ENCODING 53
SWIDTH 833 0
DWIDTH 10 0
BBX 7 9 1 2
BITMAP
FE
80
80
F8
04
02
02
84
78
ENDCHAR
STARTCHAR six
ENCODING 54
SWIDTH 833 0
DWIDTH 10 0
BBX 7 9 1 2
BITMAP
3C
40
80
80
FC
82
82
82
7C
ENDCHAR
STARTCHAR seven
ENCODING 55
SWIDTH 833 0
DWIDTH 10 0
BBX 7 9 1 2
BITMAP
FE
82
04
08
10
20
20
20
20
ENDCHAR
STARTCHAR eight
ENCODING 56
SWIDTH 833 0
DWIDTH 10 0
BBX 7 9 1 2
BITMAP
7C
82
82
82
7C
82
82
82
7C
ENDCHAR
STARTCHAR nine
ENCODING 57
SWIDTH 833 0
DWIDTH 10 0
BBX 7 9 0 2
BITMAP
7C
82
82
82
7E
02
02
04
78
ENDCHAR
STARTCHAR colon
ENCODING 58
SWIDTH 833 0
DWIDTH 10 0
BBX 2 5 4 2
BITMAP
C0
00
00
00
C0
ENDCHAR
STARTCHAR semicolon
ENCODING 59
SWIDTH 833 0
DWIDTH 10 0
BBX 2 7 4 0
BITMAP
C0
00
00
00
C0
40
80
ENDCHAR
STARTCHAR less
ENCODING 60
SWIDTH 833 0
DWIDTH 10 0
BBX 5 9 1 2
BITMAP
08
10
20
40
80
40
20
10
08
ENDCHAR
STARTCHAR equal
ENCODING 61
SWIDTH 833 0
DWIDTH 10 0
BBX 7 3 1 5
BITMAP
FE
00
FE
ENDCHAR
STARTCHAR greater
ENCODING 62
SWIDTH 833 0
DWIDTH 10 0
BBX 5 9 3 2
BITMAP
80
40
20
10
08
10
20
40
80
ENDCHAR
STARTCHAR question
ENCODING 63
SWIDTH 833 0
DWIDTH 10 0
BBX 6 9 2 2
BITMAP
78
84
84
08
10
10
00
00
10
ENDCHAR
STARTCHAR at
ENCODING 64
SWIDTH 833 0
DWIDTH 10 0
BBX 7 9 1 2
BITMAP
3C
42
9A
AA
AA
BC
80
40
3C
ENDCHAR
STARTCHAR A
ENCODING 65
SWIDTH 833 0
DWIDTH 10 0
BBX 7 9 1 2
BITMAP
38
44
82
82
82
FE
82
82
82
ENDCHAR
STARTCHAR B
ENCODING 66
SWIDTH 833 0
DWIDTH 10 0
BBX 7 9 1 2
BITMAP
FC
42
42
42
7C
42
42
42
FC
ENDCHAR
STARTCHAR C
ENCODING 67
SWIDTH 833 0
DWIDTH 10 0
BBX 7 9 1 2
BITMAP
3C
42
80
80
80
80
80
42
3C
ENDCHAR
STARTCHAR D
ENCODING 68
SWIDTH 833 0
DWIDTH 10 0
BBX 7 9 1 2
BITMAP
F8
44
42
42
42
42
42
44
F8
ENDCHAR
STARTCHAR E
ENCODING 69
SWIDTH 833 0
DWIDTH 10 0
BBX 7 9 1 2
BITMAP
FE
80
80
80
F8
80
80
80
FE
ENDCHAR
STARTCHAR F
ENCODING 70
SWIDTH 833 0
DWIDTH 10 0
BBX 7 9 1 2
BITMAP
FE
80
80
80
F8
80
80
80
80
ENDCHAR
STARTCHAR G
ENCODING 71
SWIDTH 833 0
DWIDTH 10 0
BBX 7 9 1 2
BITMAP
3C
42
80
80
80
8E
82
42
3C
ENDCHAR
STARTCHAR H
ENCODING 72
SWIDTH 833 0
DWIDTH 10 0
BBX 7 9 1 2
BITMAP
82
82
82
82
FE
82
82
82
82
ENDCHAR
STARTCHAR I
ENCODING 73
SWIDTH 833 0
DWIDTH 10 0
BBX 5 9 2 2
BITMAP
F8
20
20
20
20
20
20
20
F8
ENDCHAR
STARTCHAR J
ENCODING 74
SWIDTH 833 0
DWIDTH 10 0
BBX 7 9 1 2
BITMAP
0E
04
04
04
04
04
84
84
78
ENDCHAR
STARTCHAR K
ENCODING 75
SWIDTH 833 0
DWIDTH 10 0
BBX 7 9 1 2
BITMAP
82
84
88
90
A0
D0
88
84
82
ENDCHAR
STARTCHAR L
ENCODING 76
SWIDTH 833 0
DWIDTH 10 0
BBX 7 9 1 2
BITMAP
80
80
80
80
80
80
80
80
FE
ENDCHAR
STARTCHAR M
ENCODING 77
SWIDTH 833 0
DWIDTH 10 0
BBX 7 9 1 2
BITMAP
82
C6
AA
92
92
82
82
82
82
ENDCHAR
STARTCHAR N
ENCODING 78
SWIDTH 833 0
DWIDTH 10 0
BBX 7 9 1 2
BITMAP
82
82
C2
A2
92
8A
86
82
82
ENDCHAR
STARTCHAR O
ENCODING 79
SWIDTH 833 0
DWIDTH 10 0
BBX 7 9 1 2
BITMAP
7C
82
82
82
82
82
82
82
7C
ENDCHAR
STARTCHAR P
ENCODING 80
SWIDTH 833 0
DWIDTH 10 0
BBX 7 9 1 2
BITMAP
FC
82
82
82
FC
80
80
80
80
ENDCHAR
STARTCHAR Q
ENCODING 81
SWIDTH 833 0
DWIDTH 10 0
BBX 7 9 1 2
BITMAP
38
44
82
82
82
92
8A
44
3A
ENDCHAR
STARTCHAR R
ENCODING 82
SWIDTH 833 0
DWIDTH 10 0
BBX 7 9 1 2
BITMAP
FC
82
82
82
FC
90
88
84
82
ENDCHAR
STARTCHAR S
ENCODING 83
SWIDTH 833 0
DWIDTH 10 0
BBX 7 9 1 2
BITMAP
7C
82
80
80
7C
02
02
82
7C
ENDCHAR
STARTCHAR T
ENCODING 84
SWIDTH 833 0
DWIDTH 10 0
BBX 7 9 1 2
BITMAP
FE
10
10
10
10
10
10
10
10
ENDCHAR
STARTCHAR U
ENCODING 85
SWIDTH 833 0
DWIDTH 10 0
BBX 7 9 1 2
BITMAP
82
82
82
82
82
82
82
82
7C
ENDCHAR
STARTCHAR V
ENCODING 86
SWIDTH 833 0
DWIDTH 10 0
BBX 7 9 1 2
BITMAP
82
82
82
44
44
28
28
10
10
ENDCHAR
STARTCHAR W
ENCODING 87
SWIDTH 833 0
DWIDTH 10 0
BBX 7 9 1 2
BITMAP
82
82
82
82
92
92
AA
C6
82
ENDCHAR
STARTCHAR X
ENCODING 88
SWIDTH 833 0
DWIDTH 10 0
BBX 7 9 1 2
BITMAP
82
82
44
28
10
28
44
82
82
ENDCHAR
STARTCHAR Y
ENCODING 89
SWIDTH 833 0
DWIDTH 10 0
BBX 7 9 1 2
BITMAP
82
82
44
28
10
10
10
10
10
ENDCHAR
STARTCHAR Z
ENCODING 90
SWIDTH 833 0
DWIDTH 10 0
BBX 7 9 1 2
BITMAP
FE
02
04
08
10
20
40
80
FE
ENDCHAR
STARTCHAR bracketleft
ENCODING 91
SWIDTH 833 0
DWIDTH 10 0
BBX 4 9 2 2
BITMAP
F0
80
80
80
80
80
80
80
F0
ENDCHAR
STARTCHAR backslash
ENCODING 92
SWIDTH 833 0
DWIDTH 10 0
BBX 7 7 1 3
BITMAP
80
40
20
10
08
04
02
ENDCHAR
STARTCHAR bracketright
ENCODING 93
SWIDTH 833 0
DWIDTH 10 0
BBX 4 9 3 2
BITMAP
F0
10
10
10
10
10
10
10
F0
ENDCHAR
STARTCHAR asciicircum
ENCODING 94
SWIDTH 833 0
DWIDTH 10 0
BBX 5 3 2 7
BITMAP
20
50
88
ENDCHAR
STARTCHAR underscore
ENCODING 95
SWIDTH 833 0
DWIDTH 10 0
BBX 7 1 1 2
BITMAP
FE
ENDCHAR
STARTCHAR grave
ENCODING 96
SWIDTH 833 0
DWIDTH 10 0
BBX 2 3 3 8
BITMAP
C0
80
40
ENDCHAR
STARTCHAR a
ENCODING 97
SWIDTH 833 0
DWIDTH 10 0
BBX 7 6 1 2
BITMAP
78
04
7C
84
84
7A
ENDCHAR
STARTCHAR b
ENCODING 98
SWIDTH 833 0
DWIDTH 10 0
BBX 6 9 1 2
BITMAP
80
80
80
B8
C4
84
84
C4
B8
ENDCHAR
STARTCHAR c
ENCODING 99
SWIDTH 833 0
DWIDTH 10 0
BBX 6 6 1 2
BITMAP
78
84
80
80
84
78
ENDCHAR
STARTCHAR d
ENCODING 100
SWIDTH 833 0
DWIDTH 10 0
BBX 6 9 1 2
BITMAP
04
04
04
74
8C
84
84
8C
74
ENDCHAR
STARTCHAR e
ENCODING 101
SWIDTH 833 0
DWIDTH 10 0
BBX 6 6 1 2
BITMAP
78
84
FC
80
80
78
ENDCHAR
STARTCHAR f
ENCODING 102
SWIDTH 833 0
DWIDTH 10 0
BBX 7 9 1 2
BITMAP
1C
22
20
20
F8
20
20
20
20
ENDCHAR
STARTCHAR g
ENCODING 103
SWIDTH 833 0
DWIDTH 10 0
BBX 6 8 1 0
BITMAP
74
8C
84
8C
74
04
84
78
ENDCHAR
STARTCHAR h
ENCODING 104
SWIDTH 833 0
DWIDTH 10 0
BBX 6 9 1 2
BITMAP
80
80
80
B8
C4
84
84
84
84
ENDCHAR
STARTCHAR i
ENCODING 105
SWIDTH 833 0
DWIDTH 10 0
BBX 3 8 3 2
BITMAP
C0
00
C0
40
40
40
40
E0
ENDCHAR
STARTCHAR j
ENCODING 106
SWIDTH 833 0
DWIDTH 10 0
BBX 5 10 1 0
BITMAP
18
00
18
08
08
08
08
08
88
70
ENDCHAR
STARTCHAR k
ENCODING 107
SWIDTH 833 0
DWIDTH 10 0
BBX 6 9 1 2
BITMAP
80
80
80
88
90
A0
D0
88
84
ENDCHAR
STARTCHAR l
ENCODING 108
SWIDTH 833 0
DWIDTH 10 0
BBX 3 9 3 2
BITMAP
C0
40
40
40
40
40
40
40
E0
ENDCHAR
STARTCHAR m
ENCODING 109
SWIDTH 833 0
DWIDTH 10 0
BBX 7 6 1 2
BITMAP
EC
92
92
92
92
92
ENDCHAR
STARTCHAR n
ENCODING 110
SWIDTH 833 0
DWIDTH 10 0
BBX 6 6 1 2
BITMAP
B8
C4
84
84
84
84
ENDCHAR
STARTCHAR o
ENCODING 111
SWIDTH 833 0
DWIDTH 10 0
BBX 6 6 1 2
BITMAP
78
84
84
84
84
78
ENDCHAR
STARTCHAR p
ENCODING 112
SWIDTH 833 0
DWIDTH 10 0
BBX 6 8 1 0
BITMAP
B8
C4
84
C4
B8
80
80
80
ENDCHAR
STARTCHAR q
ENCODING 113
SWIDTH 833 0
DWIDTH 10 0
BBX 6 8 1 0
BITMAP
74
8C
84
8C
74
04
04
04
ENDCHAR
STARTCHAR r
ENCODING 114
SWIDTH 833 0
DWIDTH 10 0
BBX 6 6 1 2
BITMAP
B8
C4
80
80
80
80
ENDCHAR
STARTCHAR s
ENCODING 115
SWIDTH 833 0
DWIDTH 10 0
BBX 6 6 1 2
BITMAP
78
84
60
18
84
78
ENDCHAR
STARTCHAR t
ENCODING 116
SWIDTH 833 0
DWIDTH 10 0
BBX 5 8 1 2
BITMAP
20
20
F8
20
20
20
20
18
ENDCHAR
STARTCHAR u
ENCODING 117
SWIDTH 833 0
DWIDTH 10 0
BBX 6 6 1 2
BITMAP
84
84
84
84
8C
74
ENDCHAR
STARTCHAR v
ENCODING 118
SWIDTH 833 0
DWIDTH 10 0
BBX 7 6 1 2
BITMAP
82
82
82
44
28
10
ENDCHAR
STARTCHAR w
ENCODING 119
SWIDTH 833 0
DWIDTH 10 0
BBX 7 6 1 2
BITMAP
82
82
92
92
92
6C
ENDCHAR
STARTCHAR x
ENCODING 120
SWIDTH 833 0
DWIDTH 10 0
BBX 6 6 1 2
BITMAP
84
48
30
30
48
84
ENDCHAR
STARTCHAR y
ENCODING 121
SWIDTH 833 0
DWIDTH 10 0
BBX 6 8 1 0
BITMAP
84
84
84
8C
74
04
84
78
ENDCHAR
STARTCHAR z
ENCODING 122
SWIDTH 833 0
DWIDTH 10 0
BBX 6 6 1 2
BITMAP
FC
08
10
20
40
FC
ENDCHAR
STARTCHAR braceleft
ENCODING 123
SWIDTH 833 0
DWIDTH 10 0
BBX 4 9 2 2
BITMAP
30
40
40
40
80
40
40
40
30
ENDCHAR
STARTCHAR bar
ENCODING 124
SWIDTH 833 0
DWIDTH 10 0
BBX 1 9 4 2
BITMAP
80
80
80
80
80
80
80
80
80
ENDCHAR
STARTCHAR braceright
ENCODING 125
SWIDTH 833 0
DWIDTH 10 0
BBX 4 9 3 2
BITMAP
C0
20
20
20
10
20
20
20
C0
ENDCHAR
STARTCHAR asciitilde
ENCODING 126
SWIDTH 833 0
DWIDTH 10 0
BBX 7 3 1 8
BITMAP
60
92
0C
ENDCHAR
STARTCHAR uni007F
ENCODING 127
SWIDTH 833 0
DWIDTH 10 0
BBX 7 9 1 2
BITMAP
AA
54
AA
54
AA
54
AA
54
AA
ENDCHAR
ENDFONT
